<svg t="1661937069770" class="icon" viewBox="0 0 1024 1024" version="1.1" xmlns="http://www.w3.org/2000/svg" p-id="5380" width="200" height="200"><path d="M512 62.7C264 62.7 62.7 264 62.7 512S264 961.3 512 961.3 961.3 760 961.3 512 760 62.7 512 62.7z m0 651.5c-111.9 0-202.2-90.3-202.2-202.2S400.1 309.8 512 309.8 714.2 400.1 714.2 512 623.9 714.2 512 714.2z m0-247.1c-24.7 0-44.9 20.2-44.9 44.9s20.2 44.9 44.9 44.9 44.9-20.2 44.9-44.9-20.2-44.9-44.9-44.9z" p-id="5381" fill="currentColor"></path></svg>